<svg xmlns="http://www.w3.org/2000/svg" width="250" height="47.353" viewBox="0 0 250 47.353"><g transform="translate(-591 -6789.262)"><g transform="translate(591 6786)"><path d="M56.907-18.423a10.369,10.369,0,0,0,3.411-3.142,5.023,5.023,0,0,0,1.128-2.5H44.15a9.718,9.718,0,0,1-5.237,1.584l-23.23-.081v-1.5H0V-.215l41.6.027q9.292,0,14.771-3.518,4.968-3.142,4.968-7.681a7.2,7.2,0,0,0-1.115-3.773A10.321,10.321,0,0,0,56.907-18.423ZM15.684-7.842v-6.553l23.23.027a7.95,7.95,0,0,1,4.3.994,2.62,2.62,0,0,1,1.4,2.2,2.843,2.843,0,0,1-1.531,2.31,7.419,7.419,0,0,1-4.163,1.021Zm0-21.162h23.1A8.481,8.481,0,0,1,43-27.849l.833.349H61.445q-.349-2.471-5.264-5.613Q50.7-36.577,41.438-36.577H0V-27.5H15.684Z" transform="translate(0 40)" fill="#fff"/><path d="M32.844-36.631H-.107V-27.5H15.684v-1.4H34.16q5.854,0,7.6,1.4h18.5a22.392,22.392,0,0,0-8.809-6.338,36.562,36.562,0,0,0-14.663-2.739ZM15.684-24.062H-.107V-.134H35.583A38.936,38.936,0,0,0,50.649-2.793,20.679,20.679,0,0,0,59.592-9.4a14.279,14.279,0,0,0,2.927-8.647q0-4.78-1.074-6.016H44.58q.7,1.128.7,5.344a9.82,9.82,0,0,1-3.142,7.332A14,14,0,0,1,32.9-8.03l-1.531-.027H15.684Z" transform="translate(66.062 40)" fill="#fff"/><path d="M26.641-8.271H22.559L32.871-24.062H15.039Q11.682-18.96,6.284-10.5,1.262-2.6-.161-.134H74.927Q73.5-2.6,68.481-10.5q-5.4-8.459-8.755-13.562H41.895L52.207-8.271l-19.6.081ZM38.672-36.738H36.523a40.793,40.793,0,0,0-7.99.806A18.483,18.483,0,0,0,22.129-33.6q-1.155.886-4.834,6.1l18.047.081.43-.618a1.594,1.594,0,0,1,.752-.43l.645-.107q.645,0,.269.054t.269.054l.645.107a1.594,1.594,0,0,1,.752.43l.43.618,18.047-.081q-3.679-5.21-4.834-6.1a18.483,18.483,0,0,0-6.405-2.336A46.313,46.313,0,0,0,38.672-36.738Z" transform="translate(123.097 40)" fill="#fff"/><rect width="199.097" height="3" transform="translate(0 42.615)" fill="#fff"/><rect width="199.097" height="3" transform="translate(0 47.615)" fill="#fff"/></g><g transform="translate(791.808 6790.001)"><path d="M1.52,40.542a5.109,5.109,0,0,1,0-7.272L13.878,21.024,1.52,8.779a5.11,5.11,0,0,1,0-7.273,5.223,5.223,0,0,1,7.339,0l18.1,17.939a2.04,2.04,0,0,1,.6,1.58,2.042,2.042,0,0,1-.6,1.58L8.859,40.542a5.222,5.222,0,0,1-7.339,0Z" transform="translate(21.623 0)" fill="#fff"/><path d="M1.52,40.542a5.109,5.109,0,0,1,0-7.272L13.878,21.024,1.52,8.779a5.11,5.11,0,0,1,0-7.273,5.223,5.223,0,0,1,7.339,0l18.1,17.939a2.04,2.04,0,0,1,.6,1.58,2.042,2.042,0,0,1-.6,1.58L8.859,40.542a5.222,5.222,0,0,1-7.339,0Z" transform="translate(0 0)" fill="#fff"/></g></g></svg>