<svg xmlns="http://www.w3.org/2000/svg" width="540" height="372.966" viewBox="0 0 540 372.966">
  <g id="browser-4x3" transform="translate(-2255 -306)">
    <g id="Shape" transform="translate(2255 306)" fill="#f2f5f7">
      <path d="M 539 371.9661254882813 L 1 371.9661254882813 L 1 2.288129329681396 C 1 1.577862739562988 1.577866673469543 0.9999960660934448 2.288133382797241 0.9999960660934448 L 537.7118530273438 0.9999960660934448 C 538.422119140625 0.9999960660934448 539 1.577862739562988 539 2.288129329681396 L 539 371.9661254882813 Z" stroke="none"/>
      <path d="M 2.28814697265625 2 C 2.1292724609375 2 2 2.1292724609375 2 2.28814697265625 L 2 370.9661254882813 L 538 370.9661254882813 L 538 2.28814697265625 C 538 2.1292724609375 537.8707275390625 2 537.7118530273438 2 L 2.28814697265625 2 M 2.28814697265625 0 L 537.7118530273438 0 C 538.9756469726563 0 540 1.0244140625 540 2.28814697265625 L 540 372.9661254882813 L 0 372.9661254882813 L 0 2.28814697265625 C 0 1.0244140625 1.0244140625 0 2.28814697265625 0 Z" stroke="none" fill="#424b5a"/>
    </g>
    <rect id="Screen" width="537.712" height="354.661" transform="translate(2256.144 323.161)" fill="#fff"/>
    <path id="Line" d="M1.144,0H538.856A1.144,1.144,0,0,1,540,1.144H0A1.144,1.144,0,0,1,1.144,0Z" transform="translate(2255 322.589)" fill="#424b5a"/>
    <circle id="Oval" cx="2.288" cy="2.288" r="2.288" transform="translate(2263.581 312.864)" fill="#424b5a"/>
    <circle id="Oval-2" data-name="Oval" cx="2.288" cy="2.288" r="2.288" transform="translate(2271.589 312.864)" fill="#424b5a"/>
    <circle id="Oval-3" data-name="Oval" cx="2.288" cy="2.288" r="2.288" transform="translate(2279.597 312.864)" fill="#424b5a"/>
    <g id="icon" transform="translate(2496.398 469.03)">
      <path id="Exclusão_12" data-name="Exclusão 12" d="M56.354,39.471H.849A.855.855,0,0,1,0,38.612V.858A.855.855,0,0,1,.849,0h55.5A.855.855,0,0,1,57.2.858V38.612A.855.855,0,0,1,56.354,39.471Zm-43.9-19.649L1.742,30.962,1.7,37.754H29.707L12.457,19.822Zm0-2.078a.847.847,0,0,1,.61.249l19.01,19.761H55.5V31.41a.827.827,0,0,1-.328-.211L39.963,15.252,27.514,28.3a.834.834,0,0,1-.611.263.843.843,0,0,1-.59-.241.864.864,0,0,1-.022-1.213L39.351,13.42a.868.868,0,0,1,1.224,0L55.5,29.071V1.716H1.7V28.543l10.149-10.55A.847.847,0,0,1,12.457,17.744Z" transform="translate(0 0)" fill="#424b5a"/>
      <path id="Subtração_10" data-name="Subtração 10" d="M5.1,10.3A5.149,5.149,0,0,1,5.1,0a5.149,5.149,0,0,1,0,10.3Zm0-8.581A3.433,3.433,0,1,0,8.5,5.148,3.419,3.419,0,0,0,5.1,1.716Z" transform="translate(19.257 8.009)" fill="#424b5a"/>
    </g>
  </g>
</svg>
