<svg xmlns="http://www.w3.org/2000/svg" xmlns:xlink="http://www.w3.org/1999/xlink" width="467" height="528" viewBox="0 0 467 528">
  <defs>
    <clipPath id="clip-path">
      <rect id="Retângulo_1" data-name="Retângulo 1" width="467" height="528" transform="translate(823 252)" fill="#fff" stroke="#707070" stroke-width="1"/>
    </clipPath>
    <clipPath id="clip-path-2">
      <path id="Caminho_106" data-name="Caminho 106" d="M0,0H445V528H0Z" transform="translate(830 1810)" fill="#fff" stroke="#707070" stroke-width="1"/>
    </clipPath>
  </defs>
  <g id="Grupo_de_máscara_1" data-name="Grupo de máscara 1" transform="translate(-823 -252)" clip-path="url(#clip-path)">
    <g id="Grupo_1" data-name="Grupo 1">
      <g id="Grupo_de_máscara_1-2" data-name="Grupo de máscara 1" transform="translate(0 -1558)" clip-path="url(#clip-path-2)">
        <g id="iPhoneX" transform="translate(832.862 1817)">
          <rect id="iPhoneX_background" data-name="iPhoneX background" width="442.138" height="903.5" fill="rgba(0,0,0,0)"/>
          <g id="iphone_x_light" data-name="iphone x light" transform="translate(0.021)">
            <g id="Buttons" transform="translate(0 116.632)">
              <path id="Right_4" data-name="Right #4" d="M0,106.838V0H2.37V.514H3.851c.124,0,.374.386.374.643V105.681c0,.128-.249.514-.374.514H2.37v.644Z" transform="translate(437.379 89.612)" fill="#5a4242"/>
              <path id="Left_3" data-name="Left #3" d="M1.522,67.882v-.407H.4c-.124,0-.374-.386-.374-.643V1.394A.242.242,0,0,1,0,1.286C0,1.069.293.879.4.879H1.522V0H3.891V67.882Z" transform="translate(0 150.316)" fill="#424b5a"/>
              <path id="Left_2" data-name="Left #2" d="M1.5,67.882v-.607H.375c-.125,0-.375-.386-.375-.643V1.193A.57.57,0,0,1,.375.679H1.5V0H3.865V67.882Z" transform="translate(0.025 63.092)" fill="#424b5a"/>
              <path id="Left_1" data-name="Left #1" d="M1.422,35.612v-.383H.375c-.125,0-.375-.386-.375-.643V1.417A.572.572,0,0,1,.375.9H1.422V0H3.791V35.612Z" transform="translate(0.664 0)" fill="#424b5a"/>
            </g>
            <g id="Body" transform="translate(3.568)">
              <rect id="body-2" data-name="body" width="434.602" height="903.5" rx="53" transform="translate(0)" fill="#f2f5f7"/>
              <path id="Border" d="M382.277,903.5H52.325A52.261,52.261,0,0,1,0,851.2V52.3A52.275,52.275,0,0,1,52.325,0H382.277A52.261,52.261,0,0,1,434.6,52.3V851.2a52.276,52.276,0,0,1-52.325,52.3ZM52.325,3.692A48.673,48.673,0,0,0,3.694,52.3V851.2a48.673,48.673,0,0,0,48.631,48.6H382.277a48.672,48.672,0,0,0,48.63-48.6V52.3a48.673,48.673,0,0,0-48.63-48.605Z" transform="translate(0 0)" fill="#424b5a"/>
            </g>
            <g id="Screen" transform="translate(17.768 14.174)">
              <path id="Screen-2" data-name="Screen" d="M369.249,0H318.99c-4.359,0-7.18,3.226-8.205,9.034C307.323,29.683,296.04,31.1,292.706,31.1H111.031c-3.334,0-14.744-1.549-18.078-22.069C92.056,3.226,89.235,0,84.748,0H34.489C16.283,0,0,19.359,0,37.814V837.457C0,860.3,23.078,872.69,34.1,872.69H369.633c11.026,0,34.1-12.39,34.1-35.233V37.814C403.866,19.359,387.455,0,369.249,0Z" transform="translate(1.232 1.231)" fill="#fff"/>
              <path id="border-2" data-name="border" d="M370.865,875.152H35.336a28.714,28.714,0,0,1-10.761-2.513,45.016,45.016,0,0,1-11.213-6.822,38.138,38.138,0,0,1-9.82-12.123A33.082,33.082,0,0,1,0,838.689V39.045c0-9.41,3.986-19.207,10.935-26.878C17.94,4.435,26.974,0,35.72,0H85.979C91.052,0,94.4,3.576,95.4,10.068c1.373,8.454,4.264,14.5,8.592,17.966a13.125,13.125,0,0,0,8.269,3.07H293.938a12.945,12.945,0,0,0,8.221-3.021c4.308-3.446,7.216-9.513,8.645-18.031C311.948,3.57,315.293,0,320.222,0H370.48a29.39,29.39,0,0,1,12.56,2.936,38.676,38.676,0,0,1,10.936,7.822,43.861,43.861,0,0,1,8.914,13.023A37.471,37.471,0,0,1,406.2,39.045V838.689a33.079,33.079,0,0,1-3.541,15.005,38.142,38.142,0,0,1-9.82,12.123,45.006,45.006,0,0,1-11.214,6.822A28.717,28.717,0,0,1,370.865,875.152ZM35.72,2.462c-8.079,0-16.469,4.163-23.017,11.423C6.2,21.1,2.463,30.269,2.463,39.045V838.689c0,9.714,4.314,18.44,12.474,25.236,6.3,5.243,14.493,8.765,20.4,8.765H370.865c5.906,0,14.1-3.522,20.4-8.765,8.16-6.8,12.473-15.522,12.473-25.236V39.037c.065-9.3-4.239-19.225-11.512-26.545A36.246,36.246,0,0,0,382.068,5.2,26.97,26.97,0,0,0,370.48,2.462H320.222a5.76,5.76,0,0,0-4.507,2.008,12.236,12.236,0,0,0-2.484,6c-1.53,9.127-4.737,15.7-9.532,19.536a15.348,15.348,0,0,1-9.761,3.562H112.262a15.56,15.56,0,0,1-9.808-3.61c-4.82-3.86-8.012-10.422-9.486-19.5a11.676,11.676,0,0,0-2.392-5.989,5.86,5.86,0,0,0-4.6-2Z" transform="translate(0 0)" fill="#424b5a"/>
            </g>
            <g id="Cam_Speaker" data-name="Cam &amp; Speaker" transform="translate(179.791 18.464)">
              <ellipse id="Camera" cx="7.56" cy="7.386" rx="7.56" ry="7.386" transform="translate(67.388)" fill="#424b5a"/>
              <rect id="Front_Speaker" data-name="Front Speaker" width="54.323" height="6.714" rx="3.357" transform="translate(0 4.028)" fill="#424b5a"/>
            </g>
          </g>
        </g>
      </g>
      <g id="chat-ballon" transform="translate(0 -1638)">
        <path id="Caminho_152" data-name="Caminho 152" d="M-7.5,0H254a6,6,0,0,1,6,6v96a6,6,0,0,1-6,6H6a6,6,0,0,1-6-6V12.888C-3.62,8.724-12.255,0-7.5,0Z" transform="translate(883 1975)" fill="#f9f9f9"/>
      </g>
      <g id="chat-ballon-2" data-name="chat-ballon" transform="translate(0 -1397)">
        <path id="Caminho_152-2" data-name="Caminho 152" d="M-7.5,0H254a6,6,0,0,1,6,6v96a6,6,0,0,1-6,6H6a6,6,0,0,1-6-6V12.888C-3.62,8.724-12.255,0-7.5,0Z" transform="translate(883 1975)" fill="#f9f9f9"/>
      </g>
      <g id="chat-ballon-3" data-name="chat-ballon" transform="translate(91 -1508)">
        <path id="Caminho_152-3" data-name="Caminho 152" d="M258.6,0H-2.894a6,6,0,0,0-6,6V83a6,6,0,0,0,6,6h248a6,6,0,0,0,6-6V12.888C254.726,8.724,263.361,0,258.6,0Z" transform="translate(883 1975)" fill="#e4e4e4"/>
      </g>
      <g id="chat-ballon-4" data-name="chat-ballon" transform="translate(91 -1267)">
        <path id="Caminho_152-4" data-name="Caminho 152" d="M258.6,0H-2.894a6,6,0,0,0-6,6V83a6,6,0,0,0,6,6h248a6,6,0,0,0,6-6V12.888C254.726,8.724,263.361,0,258.6,0Z" transform="translate(883 1975)" fill="#e4e4e4"/>
      </g>
    </g>
  </g>
</svg>
